# xmcd CD database file
#
# Track frame offsets:
#	150
#	19023
#	34877
#	48991
#	68628
#	84063
#	101569
#	119739
#	133460
#	150849
#	166468
#
# Disc length: 2440 seconds
#
# Revision: 0
# Processed by: cddbd v1.4PL0 Copyright (c) Steve Scherf et al.
# Submitted via: CdAid 2001.05.15.01
#
DISCID=8809860b
DTITLE=Melissa Jones - You Just Wouldn't Believe It!
DYEAR=1900
DGENRE=
TTITLE0=Strongest Weakness
TTITLE1=Almost Mine
TTITLE2=Not Like This
TTITLE3=You Just Wouldn't Believe It
TTITLE4=Beyond This In-Between
TTITLE5=Arizona Rain
TTITLE6=The Deep End Of Your Heart
TTITLE7=Paint This Town
TTITLE8=In The Valley Of The Shadow
TTITLE9=A Far Cry (From Cryin' Over You)
TTITLE10=If I Went Back In Time
EXTD=
EXTT0=
EXTT1=
EXTT2=
EXTT3=
EXTT4=
EXTT5=
EXTT6=
EXTT7=
EXTT8=
EXTT9=
EXTT10=
PLAYORDER=
